<svg xmlns="http://www.w3.org/2000/svg" xmlns:xlink="http://www.w3.org/1999/xlink" contentStyleType="text/css" data-diagram-type="CLASS" height="1400px" preserveAspectRatio="none" style="width:1168px;height:1400px;background:#FFFFFF;" version="1.1" viewBox="0 0 1168 1400" width="1168px" zoomAndPan="magnify"><?plantuml 1.2026.6?><defs/><g><g class="title" data-source-line="1"><text fill="#000000" font-family="'DejaVu Sans'" font-size="36" font-weight="700" lengthAdjust="spacing" textLength="812.4434" x="170.7939" y="53.416">ERD SkillSwap &#8212; domaine Comp&#233;tences</text></g><!--class user--><g class="entity" data-qualified-name="user" data-source-line="25" id="ent0001"><rect fill="#F0F3F6" height="219.625" rx="5" ry="5" style="stroke:#8C959F;stroke-width:1;" width="313.8906" x="118.08" y="533.3263"/><text fill="#000000" font-family="DejaVu Sans" font-size="32" font-style="italic" lengthAdjust="spacing" textLength="163.4844" x="193.2831" y="573.0294">&#171;externe&#187;</text><text fill="#000000" font-family="'DejaVu Sans'" font-size="32" lengthAdjust="spacing" textLength="69.7969" x="240.1269" y="610.2794">user</text><line style="stroke:#8C959F;stroke-width:1;" x1="120.08" x2="429.9706" y1="627.8263" y2="627.8263"/><text fill="#000000" font-family="'DejaVu Sans'" font-size="32" lengthAdjust="spacing" textLength="280.5" x="130.08" y="665.5294">*id : integer &#171;PK&#187;</text><line style="stroke:#8C959F;stroke-width:2;" x1="120.08" x2="429.9706" y1="681.0763" y2="681.0763"/><line style="stroke:#8C959F;stroke-width:2;stroke-dasharray:2,4;" x1="120.08" x2="126.08" y1="715.7013" y2="715.7013"/><text fill="#000000" font-family="'DejaVu Sans'" font-size="32" lengthAdjust="spacing" textLength="297.8906" x="126.08" y="725.7794">voir figure Identite</text><line style="stroke:#8C959F;stroke-width:2;stroke-dasharray:2,4;" x1="423.9706" x2="429.9706" y1="715.7013" y2="715.7013"/></g><!--class cat--><g class="entity" data-qualified-name="cat" data-source-line="31" id="ent0002"><rect fill="#FFFFFF" height="275.5" rx="5" ry="5" style="stroke:#24292F;stroke-width:1;" width="408.9531" x="690.54" y="97.9063"/><text fill="#000000" font-family="'DejaVu Sans'" font-size="32" lengthAdjust="spacing" textLength="141.4219" x="824.3056" y="137.6094">category</text><line style="stroke:#24292F;stroke-width:1;" x1="692.54" x2="1097.4931" y1="155.1563" y2="155.1563"/><text fill="#000000" font-family="'DejaVu Sans'" font-size="32" lengthAdjust="spacing" textLength="280.5" x="702.54" y="192.8594">*id : integer &#171;PK&#187;</text><line style="stroke:#24292F;stroke-width:2;" x1="692.54" x2="1097.4931" y1="208.4063" y2="208.4063"/><text fill="#000000" font-family="'DejaVu Sans'" font-size="32" lengthAdjust="spacing" textLength="185.5938" x="702.54" y="246.1094">name : text</text><text fill="#000000" font-family="'DejaVu Sans'" font-size="32" lengthAdjust="spacing" textLength="374.4844" x="702.54" y="283.3594">created_at : timestamp</text><text fill="#000000" font-family="'DejaVu Sans'" font-size="32" lengthAdjust="spacing" textLength="384.9531" x="702.54" y="320.6094">updated_at : timestamp</text><text fill="#000000" font-family="'DejaVu Sans'" font-size="32" lengthAdjust="spacing" textLength="335.9531" x="702.54" y="357.8594">slug : text &#171;UNIQUE&#187;</text></g><!--class skill--><g class="entity" data-qualified-name="skill" data-source-line="40" id="ent0003"><rect fill="#FFFFFF" height="275.5" rx="5" ry="5" style="stroke:#24292F;stroke-width:1;" width="445.0313" x="672.5" y="505.4063"/><text fill="#000000" font-family="'DejaVu Sans'" font-size="32" lengthAdjust="spacing" textLength="61.875" x="864.0781" y="545.1094">skill</text><line style="stroke:#24292F;stroke-width:1;" x1="674.5" x2="1115.5313" y1="562.6563" y2="562.6563"/><text fill="#000000" font-family="'DejaVu Sans'" font-size="32" lengthAdjust="spacing" textLength="280.5" x="684.5" y="600.3594">*id : integer &#171;PK&#187;</text><line style="stroke:#24292F;stroke-width:2;" x1="674.5" x2="1115.5313" y1="615.9063" y2="615.9063"/><text fill="#000000" font-family="'DejaVu Sans'" font-size="32" lengthAdjust="spacing" textLength="185.5938" x="684.5" y="653.6094">name : text</text><text fill="#000000" font-family="'DejaVu Sans'" font-size="32" lengthAdjust="spacing" textLength="421.0313" x="684.5" y="690.8594">category_id : integer &#171;FK&#187;</text><text fill="#000000" font-family="'DejaVu Sans'" font-size="32" lengthAdjust="spacing" textLength="374.4844" x="684.5" y="728.1094">created_at : timestamp</text><text fill="#000000" font-family="'DejaVu Sans'" font-size="32" lengthAdjust="spacing" textLength="384.9531" x="684.5" y="765.3594">updated_at : timestamp</text></g><!--class uhs--><g class="entity" data-qualified-name="uhs" data-source-line="49" id="ent0004"><rect fill="#FFFFFF" height="238.25" rx="5" ry="5" style="stroke:#24292F;stroke-width:1;" width="450.0313" x="14" y="912.8863"/><text fill="#000000" font-family="'DejaVu Sans'" font-size="32" lengthAdjust="spacing" textLength="220.2344" x="128.8984" y="952.5894">user_has_skill</text><line style="stroke:#24292F;stroke-width:1;" x1="16" x2="462.0313" y1="970.1363" y2="970.1363"/><text fill="#000000" font-family="'DejaVu Sans'" font-size="32" lengthAdjust="spacing" textLength="426.0313" x="26" y="1007.8394">*user_id : integer &#171;PK, FK&#187;</text><text fill="#000000" font-family="'DejaVu Sans'" font-size="32" lengthAdjust="spacing" textLength="418.1094" x="26" y="1045.0894">*skill_id : integer &#171;PK, FK&#187;</text><line style="stroke:#24292F;stroke-width:2;" x1="16" x2="462.0313" y1="1060.6363" y2="1060.6363"/><text fill="#000000" font-family="'DejaVu Sans'" font-size="32" lengthAdjust="spacing" textLength="374.4844" x="26" y="1098.3394">created_at : timestamp</text><text fill="#000000" font-family="'DejaVu Sans'" font-size="32" lengthAdjust="spacing" textLength="384.9531" x="26" y="1135.5894">updated_at : timestamp</text></g><!--class uhi--><g class="entity" data-qualified-name="uhi" data-source-line="57" id="ent0005"><rect fill="#FFFFFF" height="238.25" rx="5" ry="5" style="stroke:#24292F;stroke-width:1;" width="450.0313" x="688" y="912.8863"/><text fill="#000000" font-family="'DejaVu Sans'" font-size="32" lengthAdjust="spacing" textLength="281.8281" x="772.1016" y="952.5894">user_has_interest</text><line style="stroke:#24292F;stroke-width:1;" x1="690" x2="1136.0313" y1="970.1363" y2="970.1363"/><text fill="#000000" font-family="'DejaVu Sans'" font-size="32" lengthAdjust="spacing" textLength="426.0313" x="700" y="1007.8394">*user_id : integer &#171;PK, FK&#187;</text><text fill="#000000" font-family="'DejaVu Sans'" font-size="32" lengthAdjust="spacing" textLength="418.1094" x="700" y="1045.0894">*skill_id : integer &#171;PK, FK&#187;</text><line style="stroke:#24292F;stroke-width:2;" x1="690" x2="1136.0313" y1="1060.6363" y2="1060.6363"/><text fill="#000000" font-family="'DejaVu Sans'" font-size="32" lengthAdjust="spacing" textLength="374.4844" x="700" y="1098.3394">created_at : timestamp</text><text fill="#000000" font-family="'DejaVu Sans'" font-size="32" lengthAdjust="spacing" textLength="384.9531" x="700" y="1135.5894">updated_at : timestamp</text></g><!--link cat to skill--><g class="link" data-entity-1="ent0002" data-entity-2="ent0003" data-link-type="crowfoot" data-source-line="65" id="lnk6"><path codeLine="65" d="M895.02,390.2463 C895.02,432.3262 895.02,426.6263 895.02,468.6863" fill="none" id="cat-skill" style="stroke:#24292F;stroke-width:2;"/><line style="stroke:#24292F;stroke-width:2;" x1="887.02" x2="903.02" y1="382.2463" y2="382.2463"/><line style="stroke:#24292F;stroke-width:2;" x1="887.02" x2="903.02" y1="388.2463" y2="388.2463"/><line style="stroke:#24292F;stroke-width:2;" x1="895.02" x2="895.02" y1="390.2463" y2="374.2463"/><line style="stroke:#24292F;stroke-width:2;" x1="895.02" x2="907.02" y1="488.6863" y2="504.6863"/><line style="stroke:#24292F;stroke-width:2;" x1="895.02" x2="883.02" y1="488.6863" y2="504.6863"/><line style="stroke:#24292F;stroke-width:2;" x1="895.02" x2="895.02" y1="488.6863" y2="504.6863"/><ellipse cx="895.02" cy="476.6863" fill="none" rx="8" ry="8" style="stroke:#24292F;stroke-width:2;"/><text fill="#000000" font-family="'DejaVu Sans'" font-size="32" lengthAdjust="spacing" textLength="183.5313" x="897.02" y="451.1094">(1,1) - (0,n)</text></g><!--link skill to uhs--><g class="link" data-entity-1="ent0003" data-entity-2="ent0004" data-link-type="crowfoot" data-source-line="66" id="lnk7"><path codeLine="66" d="M658.1998,784.0828 C582.9998,828.2028 544.3874,850.8439 470.9874,893.9239" fill="none" id="skill-uhs" style="stroke:#24292F;stroke-width:2;"/><line style="stroke:#24292F;stroke-width:2;" x1="661.0516" x2="669.1482" y1="773.1345" y2="786.9346"/><line style="stroke:#24292F;stroke-width:2;" x1="655.8765" x2="663.9731" y1="776.1707" y2="789.9709"/><line style="stroke:#24292F;stroke-width:2;" x1="658.1998" x2="672" y1="784.0828" y2="775.9862"/><line style="stroke:#24292F;stroke-width:2;" x1="453.7389" x2="446.0141" y1="904.0474" y2="922.4954"/><line style="stroke:#24292F;stroke-width:2;" x1="453.7389" x2="433.8659" y1="904.0474" y2="901.7971"/><line style="stroke:#24292F;stroke-width:2;" x1="453.7389" x2="439.94" y1="904.0474" y2="912.1463"/><ellipse cx="464.088" cy="897.9733" fill="none" rx="8" ry="8" style="stroke:#24292F;stroke-width:2;"/><text fill="#000000" font-family="'DejaVu Sans'" font-size="32" lengthAdjust="spacing" textLength="75.7813" x="569.02" y="858.5894">(0,n)</text></g><!--link user to uhs--><g class="link" data-entity-1="ent0001" data-entity-2="ent0004" data-link-type="crowfoot" data-source-line="67" id="lnk8"><path codeLine="67" d="M151.1899,766.5476 C134.0299,788.9476 128.62,800.9663 119.02,826.8863 C108.34,855.7063 98.0645,852.9049 111.7045,880.0249" fill="none" id="user-uhs" style="stroke:#24292F;stroke-width:2;"/><line style="stroke:#24292F;stroke-width:2;" x1="149.7043" x2="162.4056" y1="755.3319" y2="765.062"/><line style="stroke:#24292F;stroke-width:2;" x1="146.0554" x2="158.7568" y1="760.0949" y2="769.825"/><line style="stroke:#24292F;stroke-width:2;" x1="151.1899" x2="160.92" y1="766.5476" y2="753.8463"/><line style="stroke:#24292F;stroke-width:2;" x1="120.6909" x2="138.6004" y1="897.8923" y2="906.7944"/><line style="stroke:#24292F;stroke-width:2;" x1="120.6909" x2="117.1596" y1="897.8923" y2="917.5781"/><line style="stroke:#24292F;stroke-width:2;" x1="120.6909" x2="127.88" y1="897.8923" y2="912.1863"/><ellipse cx="115.299" cy="887.1719" fill="none" rx="8" ry="8" style="stroke:#24292F;stroke-width:2;"/><text fill="#000000" font-family="'DejaVu Sans'" font-size="32" lengthAdjust="spacing" textLength="75.7813" x="121.02" y="858.5894">(0,n)</text></g><!--link skill to uhi--><g class="link" data-entity-1="ent0003" data-entity-2="ent0005" data-link-type="crowfoot" data-source-line="68" id="lnk9"><path codeLine="68" d="M902.1265,797.3688 C904.1265,840.1888 903.8949,835.1257 905.8349,876.5257" fill="none" id="skill-uhi" style="stroke:#24292F;stroke-width:2;"/><line style="stroke:#24292F;stroke-width:2;" x1="893.762" x2="909.7445" y1="789.7508" y2="789.0043"/><line style="stroke:#24292F;stroke-width:2;" x1="894.0419" x2="910.0245" y1="795.7443" y2="794.9978"/><line style="stroke:#24292F;stroke-width:2;" x1="902.1265" x2="901.38" y1="797.3688" y2="781.3863"/><line style="stroke:#24292F;stroke-width:2;" x1="906.7711" x2="919.5068" y1="896.5038" y2="911.9245"/><line style="stroke:#24292F;stroke-width:2;" x1="906.7711" x2="895.5332" y1="896.5038" y2="913.048"/><line style="stroke:#24292F;stroke-width:2;" x1="906.7711" x2="907.52" y1="896.5038" y2="912.4863"/><ellipse cx="906.2094" cy="884.5169" fill="none" rx="8" ry="8" style="stroke:#24292F;stroke-width:2;"/><text fill="#000000" font-family="'DejaVu Sans'" font-size="32" lengthAdjust="spacing" textLength="75.7813" x="907.1" y="858.5894">(0,n)</text></g><!--link user to uhi--><g class="link" data-entity-1="ent0001" data-entity-2="ent0005" data-link-type="crowfoot" data-source-line="69" id="lnk10"><path codeLine="69" d="M314.9306,768.6406 C332.4306,809.2606 351.44,837.8263 387.02,866.8863 C446.96,915.8863 480.88,890.6263 555.02,912.8863 C597.92,925.7863 609.25,929.0585 652.99,943.2185" fill="none" id="user-uhi" style="stroke:#24292F;stroke-width:2;"/><line style="stroke:#24292F;stroke-width:2;" x1="304.4182" x2="319.1125" y1="764.4587" y2="758.1281"/><line style="stroke:#24292F;stroke-width:2;" x1="306.7922" x2="321.4865" y1="769.9691" y2="763.6385"/><line style="stroke:#24292F;stroke-width:2;" x1="314.9306" x2="308.6" y1="768.6406" y2="753.9463"/><line style="stroke:#24292F;stroke-width:2;" x1="672.0178" x2="690.9359" y1="949.3783" y2="942.8896"/><line style="stroke:#24292F;stroke-width:2;" x1="672.0178" x2="683.5441" y1="949.3783" y2="965.7229"/><line style="stroke:#24292F;stroke-width:2;" x1="672.0178" x2="687.24" y1="949.3783" y2="954.3063"/><ellipse cx="660.6011" cy="945.6824" fill="none" rx="8" ry="8" style="stroke:#24292F;stroke-width:2;"/><text fill="#000000" font-family="'DejaVu Sans'" font-size="32" lengthAdjust="spacing" textLength="75.7813" x="389.02" y="858.5894">(0,n)</text></g><g class="legend" data-source-line="71"><rect fill="#DDDDDD" height="169" rx="15" ry="15" style="stroke:#000000;stroke-width:2;" width="896.6719" x="128.6797" y="1193.1363"/><text fill="#000000" font-family="'DejaVu Sans'" font-size="32" lengthAdjust="spacing" textLength="626.4063" x="138.6797" y="1232.8394">user_has_skill = competences offertes.</text><text fill="#000000" font-family="'DejaVu Sans'" font-size="32" lengthAdjust="spacing" textLength="761.625" x="138.6797" y="1270.0894">user_has_interest = competences recherchees.</text><text fill="#000000" font-family="'DejaVu Sans'" font-size="32" lengthAdjust="spacing" textLength="781.5156" x="138.6797" y="1307.3394">PK composite (user_id, skill_id) : pas de doublon.</text><text fill="#000000" font-family="'DejaVu Sans'" font-size="32" lengthAdjust="spacing" textLength="876.6719" x="138.6797" y="1344.5894">NOT NULL partout. FK : ON DELETE/UPDATE CASCADE.</text></g></g></svg>